<svg version="1.1" xmlns="http://www.w3.org/2000/svg" xmlns:xlink="http://www.w3.org/1999/xlink" viewBox="0 0 900 500" width="900" height="500" >

  <g>
	<path fill="none"  stroke="#FFF" stroke-width="2" stroke-dasharray="5" d="M900,1 h-899 v498 h899"></path>
  </g>
  <g>
	<path stroke="none" fill="#CC0" fill-opacity="0.3" d="M360,0 h530 q20,20 0,40 t0,40 t0,40 t0,40 t0,40 t0,40 t0,40 t0,40 t0,40 t0,40 h-530z"></path>
	<path stroke="none" fill="#0CC" fill-opacity="0.3" d="M360,400 h530 q20,20 0,40 t0,40 t0,40 h-530z"></path>
  </g>
  <g fill="#FFF">
	<rect x="60" y="0" width="10px" height="500px" fill="#F00" ></rect>
	<text x="60" y="250" text-anchor="middle" font-size="50" transform="rotate(270,50,250)">body</text>
	<text x="100" y="250" text-anchor="middle" font-size="20" transform="rotate(270,90,250)">background-color: #F00;</text>
  </g>
  <g fill="#FFF">
	<rect x="160" y="0" width="10px" height="500px" fill="#0FF" ></rect>
	<text x="160" y="250" text-anchor="middle" font-size="45" transform="rotate(270,150,250)">phone</text>
	<text x="200" y="250" text-anchor="middle" font-size="20" transform="rotate(270,190,250)">background-color: #0FF;</text>
  </g>
  <g fill="#FFF">
	<rect x="260" y="0" width="10px" height="500px" fill="#FF0" ></rect>
	<text x="260" y="250" text-anchor="middle" font-size="45" transform="rotate(270,250,250)">screen</text>
	<text x="310" y="250" text-anchor="middle" font-size="20" transform="rotate(270,290,250)">background-image: url(file.svg);</text>
  </g>
  <g fill="#FFF">
	<rect x="360" y="0" width="10px" height="400px" fill="#08F" ></rect>
	<text x="410" y="250" text-anchor="middle" font-size="45" transform="rotate(270,350,250)">display</text>
	<text x="450" y="250" text-anchor="middle" font-size="20" transform="rotate(270,390,250)">background-color: transparent;</text>
	<line x1="360" y1="400" x2="8900" y2="400" stroke="#FFF" stroke-dasharray="10"></line>
	<rect x="360" y="400" width="10px" height="100px" fill="#323232" ></rect>
	<text x="160" y="250" text-anchor="middle" font-size="30" transform="rotate(270,350,250)">menu</text>
  </g>
  <g fill="#F0F">
	<rect x="460" y="0" width="10px" height="400px" fill="#08F" ></rect>
	<text x="490" y="250" text-anchor="middle" font-size="40" transform="rotate(270,450,250)">app-3</text>
	<text x="530" y="250" text-anchor="middle" font-size="15" transform="rotate(270,490,250)">background-color: #FFF; display: none;</text>
  </g>
  <g fill="#F0F">
	<rect x="560" y="0" width="10px" height="400px" fill="#08F" ></rect>
	<text x="590" y="250" text-anchor="middle" font-size="40" transform="rotate(270,550,250)">app-2</text>
	<text x="630" y="250" text-anchor="middle" font-size="15" transform="rotate(270,590,250)">background-color: #FFF; display: none;</text>
  </g>
  <g fill="#F0F">
	<rect x="660" y="0" width="10px" height="400px" fill="#08F" ></rect>
	<text x="690" y="250" text-anchor="middle" font-size="40" transform="rotate(270,650,250)">app-1</text>
	<text x="740" y="250" text-anchor="middle" font-size="15" transform="rotate(270,690,250)">background-color: transparent; display: block;</text>
  </g>
  <g fill="#FA9000">
	<rect x="760" y="0" width="10px" height="100px" fill="#" rx="10" ></rect>
	<text x="920" y="250" text-anchor="" font-size="20" transform="rotate(270,750,250)">icon-2</text>
	<rect x="760" y="200" width="10px" height="100px" fill="#" rx="10" ></rect>
	<text x="720" y="250" text-anchor="" font-size="20" transform="rotate(270,750,250)">icon-3</text>
	<rect x="760" y="400" width="10px" height="100px" fill="#" rx="10" ></rect>
	<text x="520" y="250" text-anchor="" font-size="20" transform="rotate(270,750,250)">icon-1</text>
	<text x="820" y="250" text-anchor="middle" font-size="15" transform="rotate(270,810,250)">background-image: url(files.svg);</text>
	<path stroke="#FFF" stroke-width="3px" fill="#FFF" d="M780,50 a3,3 0 1,1 0,-1 v200 a3,3 0 1,1 0,-1 v200 a3,3 0 1,1 0,-1"></path>
  </g>

  <defs>
	<pattern id="viewport" x="0" y="0" width="5.55%" height="20%">
	  <path fill="#E1E1E1" stroke="none"  d="M-50,50 a50,50 0 1,1 0,1z" />
	</pattern>
	<pattern id="grid10" x="0" y="0" width="11.11%" height="20%">
	  <path fill="none" stroke="#000" stroke-width="3" d="M0,100 100,100 100,0" />
	</pattern>
  </defs>
  <defs>
	<pattern id="grid24" x="0" y="0" width="5.56%" height="10%">
	  <path fill="none" stroke="#F00" stroke-width="1" d="M0,50 50,50 50,0" />
	</pattern>
  </defs>
  <!--     <rect  x="0" y="0" width="900" height="500" fill="url(#grid24)"></rect> -->
  <!--     <rect  x="0" y="0" width="900" height="500" fill="url(#grid10)"></rect>-->

  <style type="text/css" ><![CDATA[
  ]]></style>
</svg>
