<svg version="1.1" xmlns="http://www.w3.org/2000/svg" xmlns:xlink="http://www.w3.org/1999/xlink" viewBox="0 0 150 150" width="250px" height="250px" font-family="monospace" id="yin">
  <title>uicuxd: yin-yang-logo</title>
  <desc>Author: Shakiba Moshiri. MIT License. Has been created for uicuxd manually. For more see our github repository.</desc>

  <g>
	<path id="yin" fill="#000" d="M25,75 a50,50 0 1,1 100,0 a25,25 0 1,1 -50,0 a25,25 0 1,0 -50,0z"></path>
	<path id="yang" fill="#FFF" d="M25,75 a50,50 0 1,0 100,0 a25,25 0 1,1 -50,0 a25,25 0 0,0 -50,0z"></path>
  </g>
  <g id="uic">
	<path d="M40,75 a10,10 0 1,1 0,1z"></path>
	<text x="50" y="78" text-anchor="middle" font-size="8">uic</text>
  </g>
  <g id="uxd">
	<path  d="M90,75 a10,10 0 1,1 0,1z">
	  <!--        <animate attributeName="d" attributeType="XML" begin="mouseover" from="M90,75 a10,10 0 1,1 0,1z" to="M90,75 a10,1 0 1,1 0,1z" dur="250ms"></animate>  -->
	</path>
	<text x="100" y="78" text-anchor="middle" font-size="8">uxd</text>
  </g>

  <g fill="#FFF" font-size="10">
	<path id="text-path" stroke="none" fill="none" d="M20,75 a55 55 0 1,1 0,1z"></path>
	<text text-anchor="middle">
	  <textPath xlink:href="#text-path" startOffset="25%" >User Interface Code</textPath>
	  <textPath xlink:href="#text-path" startOffset="75%" >User Experience Design</textPath>
	</text>
  </g>

<!--
  <defs>
	<pattern id="grid10" x="0" y="0" width="6.66%" height="6.66%">
	  <path fill="none" stroke="#FFF" stroke-width="0.5" d="M0,10 10,10 10,0" />
	</pattern>
  </defs>
  <defs>
	<pattern id="grid24" x="0" y="0" width="16.66%" height="16.66%">
	  <path fill="none" stroke="#FFF" stroke-width="1" d="M0,25 25,25 25,0" />
	</pattern>
  </defs>
-->
  <rect  x="0" y="0" width="150" height="150" fill="url(#grid24)"></rect>
  <!--	 <rect  x="0" y="0" width="150" height="150" fill="url(#grid10)"></rect>-->

  <defs>
	<style type="text/css" ><![CDATA[
	g:last-of-type { transform-origin: 75px 75px; transition: transform 2000ms ease 50ms; }
	svg:hover > g:last-of-type { transform: rotate(180deg); }

	g#uic > text { fill: #FFF; }
	g#uxd > text { fill: #000; }

	g#uic { transform-origin: 50px 75px; transition: transform 2000ms ease 50ms, fill 2000ms ease 50ms; fill: #000; }
	g#uxd { transform-origin: 100px 75px; transition: transform 2000ms ease 50ms, fill 2000ms ease 50ms; fill: #FFF }

	svg:hover > g#uic { transform: translate(50px,0px) rotate(360deg); fill: #FFF; }
	svg:hover > g#uxd { transform: translate(-50px,0px) rotate(360deg); fill: #000 }
	svg:hover > g#uic > text { fill: #000; }
	svg:hover > g#uxd > text { fill: #FFF; }
	]]></style>
  </defs>
</svg>
